<svg width="23" height="29" viewBox="0 0 23 29" fill="none" xmlns="http://www.w3.org/2000/svg">
<path d="M22.2806 9.89151C22.1551 9.97229 19.1673 11.677 19.1673 15.4567C19.3082 19.7673 22.9378 21.279 23 21.279C22.9378 21.3598 22.452 23.3383 21.0133 25.4122C19.8714 27.1988 18.6041 29 16.6796 29C14.849 29 14.1918 27.8093 12.0796 27.8093C9.81119 27.8093 9.16935 29 7.43261 29C5.50812 29 4.14689 27.1023 2.94281 25.3325C1.37852 23.0162 0.0489207 19.3812 0.00198185 15.891C-0.0296509 14.0416 0.315248 12.2236 1.19076 10.6794C2.42648 8.52355 4.63261 7.06012 7.0418 7.01187C8.88772 6.94787 10.5306 8.31479 11.6571 8.31479C12.7367 8.31479 14.7551 7.01187 17.0388 7.01187C18.0245 7.01291 20.6531 7.31819 22.2806 9.89151ZM11.501 6.6426C11.1724 4.95362 12.0796 3.26465 12.9245 2.18727C14.0041 0.884351 15.7092 0 17.1796 0C17.2735 1.68897 16.6786 3.34543 15.6153 4.55184C14.6612 5.85476 13.0183 6.83562 11.501 6.6426Z" fill="black"/>
</svg>
