<svg width="13" height="15" viewBox="0 0 13 15" fill="none" xmlns="http://www.w3.org/2000/svg">
<path d="M1.77539 9.21875C4.34202 8.06046 7.7503 8.0688 10.3086 9.21875C11.4085 9.71873 12.0839 10.8936 12.084 12.2686V13.96C12.084 14.3015 11.8005 14.5848 11.459 14.585C11.1173 14.585 10.834 14.3016 10.834 13.96V12.2686C10.8339 11.577 10.5585 10.7109 9.79199 10.3525C7.55866 9.34421 4.53366 9.34421 2.29199 10.3525C1.52551 10.7026 1.25005 11.5686 1.25 12.2686V13.96C1.25 14.3016 0.966667 14.585 0.625 14.585C0.283479 14.5848 0 14.3015 0 13.96V12.2686C6.16858e-05 10.8853 0.675441 9.71873 1.77539 9.21875ZM6.04199 0C7.99199 0 9.58398 1.59199 9.58398 3.54199C9.58398 5.49199 7.99199 7.08398 6.04199 7.08398C4.09199 7.08398 2.5 5.49199 2.5 3.54199C2.5 1.59199 4.09199 1.78376e-07 6.04199 0ZM6.04199 1.25C4.77533 1.25 3.75 2.27533 3.75 3.54199C3.75 4.80866 4.77533 5.83398 6.04199 5.83398C7.30866 5.83398 8.33398 4.80866 8.33398 3.54199C8.33398 2.27533 7.30866 1.25 6.04199 1.25Z" fill="#7D8A95"/>
</svg>
